<?xml version="1.0" standalone="no"?>
<!DOCTYPE svg PUBLIC "-//W3C//DTD SVG 20010904//EN"
 "http://www.w3.org/TR/2001/REC-SVG-20010904/DTD/svg10.dtd">
<svg version="1.0" xmlns="http://www.w3.org/2000/svg"
 width="71.000000pt" height="200.000000pt" viewBox="0 0 71.000000 200.000000"
 preserveAspectRatio="xMidYMid meet">
<metadata>
Created by potrace 1.10, written by Peter Selinger 2001-2011
</metadata>
<g transform="translate(0.000000,200.000000) scale(0.100000,-0.100000)"
fill="#56d027" stroke="none">
<path d="M52 1823 c4 -201 14 -238 77 -280 32 -22 44 -23 225 -23 200 -1 211
-3 234 -47 9 -16 12 -215 12 -747 0 -639 2 -726 15 -726 13 0 15 87 15 720 0
771 1 760 -50 805 -20 18 -40 20 -225 25 -196 5 -204 6 -228 28 -37 35 -47 93
-47 266 0 136 -2 156 -16 156 -14 0 -16 -20 -12 -177z"/>
</g>
</svg>
