<?xml version="1.0" encoding="utf-8"?>
<!-- Generator: Adobe Illustrator 18.0.0, SVG Export Plug-In . SVG Version: 6.00 Build 0)  -->
<!DOCTYPE svg PUBLIC "-//W3C//DTD SVG 1.1//EN" "http://www.w3.org/Graphics/SVG/1.1/DTD/svg11.dtd">
<svg version="1.1" id="Layer_1" xmlns="http://www.w3.org/2000/svg" xmlns:xlink="http://www.w3.org/1999/xlink" x="0px" y="0px"
	 viewBox="0 0 1280 800" enable-background="new 0 0 1280 800" xml:space="preserve">
<g>
	<g>
		<path fill="#FFFFFF" d="M648.1,656.6l0-1c2.6,0,5.3-0.1,8-0.3l0.1,1C653.5,656.5,650.8,656.6,648.1,656.6z M640.1,656.6
			c-2.7-0.1-5.4-0.2-8-0.4l0.1-1c2.6,0.2,5.3,0.3,8,0.3L640.1,656.6z M664.1,655.7l-0.1-1c2.6-0.2,5.3-0.6,7.9-0.9l0.1,1
			C669.5,655.2,666.8,655.5,664.1,655.7z M624.1,655.6c-2.6-0.3-5.3-0.6-8-1l0.1-1c2.6,0.4,5.3,0.7,7.9,1L624.1,655.6z M680,653.6
			l-0.2-1c2.6-0.5,5.2-1,7.8-1.5l0.2,1C685.3,652.6,682.6,653.1,680,653.6z M608.3,653.3c-2.6-0.5-5.3-1-7.9-1.6l0.2-1
			c2.6,0.6,5.2,1.1,7.8,1.6L608.3,653.3z M695.7,650.2l-0.3-1c2.6-0.7,5.1-1.4,7.7-2.2l0.3,1C700.9,648.8,698.3,649.5,695.7,650.2z
			 M592.6,649.7c-2.6-0.7-5.2-1.4-7.7-2.2l0.3-1c2.5,0.8,5.1,1.5,7.7,2.2L592.6,649.7z M711,645.6l-0.3-0.9c2.5-0.9,5-1.8,7.5-2.8
			l0.4,0.9C716.1,643.7,713.5,644.7,711,645.6z M577.3,644.9c-2.5-0.9-5-1.9-7.5-2.9l0.4-0.9c2.5,1,5,2,7.5,2.8L577.3,644.9z
			 M725.9,639.7l-0.4-0.9c2.4-1.1,4.8-2.2,7.2-3.4l0.4,0.9C730.8,637.5,728.4,638.6,725.9,639.7z M562.4,638.9
			c-2.4-1.1-4.9-2.3-7.3-3.5l0.4-0.9c2.4,1.2,4.8,2.3,7.2,3.4L562.4,638.9z M740.3,632.7l-0.5-0.9c2.3-1.3,4.7-2.6,6.9-3.9l0.5,0.9
			C745,630.1,742.6,631.4,740.3,632.7z M548,631.7c-2.3-1.3-4.7-2.6-6.9-4l0.5-0.9c2.3,1.4,4.6,2.7,6.9,4L548,631.7z M754.1,624.5
			l-0.5-0.8c2.2-1.4,4.4-2.9,6.6-4.5l0.6,0.8C758.5,621.6,756.3,623.1,754.1,624.5z M534.3,623.4c-2.2-1.5-4.4-3-6.6-4.6l0.6-0.8
			c2.2,1.6,4.4,3.1,6.6,4.5L534.3,623.4z M767.2,615.3l-0.6-0.8c2.1-1.6,4.2-3.3,6.2-5l0.6,0.8C771.4,612,769.3,613.7,767.2,615.3z
			 M521.3,614c-2.1-1.6-4.2-3.3-6.2-5.1l0.6-0.8c2,1.7,4.1,3.4,6.2,5L521.3,614z M779.5,605.1l-0.7-0.7c2-1.8,3.9-3.6,5.8-5.5
			l0.7,0.7C783.4,601.4,781.5,603.3,779.5,605.1z M509.1,603.6c-2-1.8-3.9-3.7-5.8-5.5l0.7-0.7c1.9,1.9,3.8,3.7,5.8,5.5L509.1,603.6
			z M791,593.9l-0.7-0.7c1.8-1.9,3.6-3.9,5.4-5.9l0.8,0.7C794.6,589.9,792.8,591.9,791,593.9z M497.7,592.3c-1.8-1.9-3.6-4-5.3-6
			l0.8-0.7c1.7,2,3.5,4,5.3,6L497.7,592.3z M801.5,581.8l-0.8-0.6c1.7-2.1,3.3-4.2,4.9-6.3l0.8,0.6
			C804.9,577.6,803.2,579.7,801.5,581.8z M487.3,580.2c-1.6-2.1-3.3-4.2-4.8-6.4l0.8-0.6c1.6,2.1,3.2,4.3,4.8,6.4L487.3,580.2z
			 M811.1,568.9l-0.8-0.6c1.5-2.2,3-4.4,4.4-6.7l0.8,0.5C814.1,564.5,812.6,566.7,811.1,568.9z M477.8,567.2
			c-1.5-2.2-2.9-4.5-4.3-6.7l0.9-0.5c1.4,2.3,2.8,4.5,4.3,6.7L477.8,567.2z M819.6,555.3l-0.9-0.5c1.3-2.3,2.6-4.7,3.8-7l0.9,0.5
			C822.3,550.6,821,553,819.6,555.3z M469.5,553.6c-1.3-2.3-2.6-4.7-3.8-7.1l0.9-0.5c1.2,2.4,2.5,4.7,3.7,7L469.5,553.6z
			 M827.1,541.1l-0.9-0.4c1.1-2.4,2.2-4.9,3.3-7.3l0.9,0.4C829.3,536.2,828.2,538.7,827.1,541.1z M462.2,539.3
			c-1.1-2.4-2.2-4.9-3.2-7.3l0.9-0.4c1,2.4,2.1,4.9,3.2,7.3L462.2,539.3z M833.3,526.3l-0.9-0.4c0.9-2.5,1.8-5,2.7-7.5l0.9,0.3
			C835.1,521.2,834.2,523.8,833.3,526.3z M456.2,524.5c-0.9-2.5-1.8-5.1-2.6-7.6l1-0.3c0.8,2.5,1.7,5.1,2.6,7.5L456.2,524.5z
			 M838.3,511l-1-0.3c0.7-2.5,1.4-5.1,2-7.7l1,0.2C839.8,505.9,839.1,508.5,838.3,511z M451.3,509.2c-0.7-2.6-1.4-5.2-2-7.8l1-0.2
			c0.6,2.6,1.3,5.2,2,7.7L451.3,509.2z M842.1,495.5l-1-0.2c0.5-2.6,1-5.2,1.4-7.9l1,0.2C843.1,490.2,842.6,492.8,842.1,495.5z
			 M447.6,493.6c-0.5-2.6-1-5.3-1.3-7.9l1-0.1c0.4,2.6,0.8,5.3,1.3,7.9L447.6,493.6z M844.6,479.6l-1-0.1c0.3-2.6,0.6-5.3,0.8-7.9
			l1,0.1C845.2,474.3,845,477,844.6,479.6z M445.3,477.7c-0.3-2.6-0.5-5.3-0.7-8l1-0.1c0.2,2.6,0.4,5.3,0.7,7.9L445.3,477.7z
			 M845.9,463.6l-1,0c0.1-2.7,0.2-5.3,0.2-8h1C846.1,458.3,846,461,845.9,463.6z M444.2,461.7c-0.1-2-0.1-4.1-0.1-6.1
			c0-0.6,0-1.3,0-1.9l1,0c0,0.6,0,1.3,0,1.9c0,2,0,4.1,0.1,6.1L444.2,461.7z M845,451.4c-0.1-2.7-0.2-5.3-0.3-8l1-0.1
			c0.2,2.6,0.3,5.3,0.3,8L845,451.4z M445.3,445.8l-1,0c0.1-2.7,0.3-5.4,0.5-8l1,0.1C445.6,440.4,445.4,443.1,445.3,445.8z
			 M844.1,435.5c-0.3-2.6-0.6-5.3-1-7.9l1-0.1c0.4,2.6,0.7,5.3,1,8L844.1,435.5z M446.7,429.9l-1-0.1c0.3-2.6,0.7-5.3,1.2-7.9l1,0.2
			C447.4,424.6,447,427.2,446.7,429.9z M841.8,419.7c-0.5-2.6-1-5.2-1.6-7.8l1-0.2c0.6,2.6,1.1,5.2,1.6,7.9L841.8,419.7z
			 M449.4,414.1l-1-0.2c0.5-2.6,1.2-5.2,1.8-7.8l1,0.2C450.5,408.9,449.9,411.6,449.4,414.1z M838.4,404.1c-0.7-2.6-1.4-5.1-2.2-7.7
			l1-0.3c0.8,2.5,1.5,5.1,2.2,7.7L838.4,404.1z M453.3,398.7l-1-0.3c0.8-2.5,1.6-5.1,2.4-7.6l0.9,0.3
			C454.9,393.6,454,396.2,453.3,398.7z M833.7,388.9c-0.9-2.5-1.8-5-2.8-7.5l0.9-0.4c1,2.5,1.9,5,2.8,7.5L833.7,388.9z M458.4,383.6
			l-0.9-0.4c1-2.5,2-5,3-7.4l0.9,0.4C460.4,378.6,459.4,381.1,458.4,383.6z M827.7,374.1c-1.1-2.4-2.2-4.8-3.4-7.2l0.9-0.4
			c1.2,2.4,2.3,4.8,3.4,7.2L827.7,374.1z M464.8,368.9l-0.9-0.4c1.2-2.4,2.4-4.8,3.6-7.2l0.9,0.5
			C467.2,364.1,465.9,366.5,464.8,368.9z M820.7,359.8c-1.3-2.3-2.6-4.6-4-6.9l0.9-0.5c1.4,2.3,2.7,4.6,4,6.9L820.7,359.8z
			 M472.3,354.8l-0.9-0.5c1.3-2.3,2.8-4.6,4.2-6.8l0.8,0.5C475,350.2,473.6,352.5,472.3,354.8z M812.5,346.2c-1.4-2.2-3-4.4-4.5-6.6
			l0.8-0.6c1.5,2.2,3.1,4.4,4.5,6.6L812.5,346.2z M480.9,341.3l-0.8-0.6c1.5-2.2,3.1-4.4,4.7-6.5l0.8,0.6
			C484,337,482.4,339.2,480.9,341.3z M803.2,333.2c-1.6-2.1-3.3-4.2-5-6.2l0.8-0.6c1.7,2,3.4,4.1,5,6.2L803.2,333.2z M490.6,328.6
			l-0.8-0.6c1.7-2.1,3.4-4.1,5.2-6.1l0.7,0.7C494,324.5,492.2,326.6,490.6,328.6z M793,321c-1.8-2-3.6-3.9-5.5-5.8l0.7-0.7
			c1.9,1.9,3.7,3.9,5.5,5.8L793,321z M501.2,316.7l-0.7-0.7c1.9-1.9,3.8-3.8,5.7-5.7l0.7,0.7C504.9,312.9,503,314.8,501.2,316.7z
			 M781.8,309.6c-1.9-1.8-3.9-3.6-5.9-5.3l0.7-0.8c2,1.7,4,3.5,6,5.4L781.8,309.6z M512.7,305.7l-0.7-0.7c2-1.8,4.1-3.5,6.1-5.2
			l0.6,0.8C516.7,302.2,514.7,303.9,512.7,305.7z M769.7,299.2c-2.1-1.7-4.2-3.3-6.3-4.9l0.6-0.8c2.1,1.6,4.3,3.2,6.4,4.9
			L769.7,299.2z M525.1,295.6l-0.6-0.8c2.1-1.6,4.3-3.2,6.5-4.7l0.6,0.8C529.4,292.5,527.2,294,525.1,295.6z M756.8,289.8
			c-2.2-1.5-4.5-2.9-6.7-4.3l0.5-0.9c2.3,1.4,4.5,2.9,6.7,4.4L756.8,289.8z M538.2,286.6l-0.5-0.8c2.2-1.4,4.5-2.8,6.8-4.1l0.5,0.9
			C542.7,283.8,540.4,285.1,538.2,286.6z M743.3,281.4c-2.3-1.3-4.7-2.6-7-3.8l0.5-0.9c2.4,1.2,4.8,2.5,7.1,3.8L743.3,281.4z
			 M552,278.6l-0.5-0.9c2.4-1.2,4.8-2.4,7.2-3.6l0.4,0.9C556.7,276.1,554.3,277.3,552,278.6z M729,274.1c-2.4-1.1-4.9-2.2-7.3-3.2
			l0.4-0.9c2.5,1,4.9,2.1,7.4,3.2L729,274.1z M566.3,271.7l-0.4-0.9c2.4-1,4.9-2.1,7.4-3l0.4,0.9
			C571.2,269.7,568.7,270.7,566.3,271.7z M714.3,267.9c-2.5-0.9-5-1.8-7.6-2.6l0.3-1c2.5,0.8,5.1,1.7,7.6,2.6L714.3,267.9z
			 M581.2,266l-0.3-0.9c2.5-0.9,5.1-1.7,7.6-2.4l0.3,1C586.3,264.4,583.7,265.2,581.2,266z M699.1,263c-2.6-0.7-5.2-1.4-7.7-2l0.2-1
			c2.6,0.6,5.2,1.3,7.8,2L699.1,263z M596.5,261.6l-0.2-1c2.6-0.6,5.2-1.2,7.8-1.8l0.2,1C601.7,260.3,599.1,260.9,596.5,261.6z
			 M683.6,259.3c-2.6-0.5-5.2-1-7.9-1.4l0.2-1c2.6,0.4,5.3,0.9,7.9,1.4L683.6,259.3z M612.1,258.3l-0.2-1c2.6-0.4,5.3-0.8,7.9-1.2
			l0.1,1C617.4,257.5,614.7,257.9,612.1,258.3z M667.8,256.9c-2.6-0.3-5.3-0.5-7.9-0.7l0.1-1c2.7,0.2,5.3,0.4,8,0.7L667.8,256.9z
			 M628,256.4l-0.1-1c2.7-0.2,5.3-0.4,8-0.5l0,1C633.3,256,630.6,256.1,628,256.4z M651.9,255.7c-2.3-0.1-4.5-0.1-6.8-0.1l-1.2,0
			l0-1l1.2,0c2.3,0,4.6,0,6.8,0.1L651.9,255.7z"/>
	</g>
	<g>
		<circle fill="#FFFFFF" cx="453.6" cy="396.6" r="8"/>
		<circle fill="#FFFFFF" cx="481.4" cy="573.1" r="4.5"/>
		<circle fill="#FFFFFF" cx="800.1" cy="580.9" r="8"/>
		<circle fill="#FFFFFF" cx="842.5" cy="417.5" r="6.6"/>
		<circle fill="#FFFFFF" cx="838" cy="514.2" r="4.5"/>
		<circle fill="#FFFFFF" cx="811" cy="346.1" r="6.6"/>
	</g>
</g>
</svg>
